<svg xmlns="http://www.w3.org/2000/svg" version="1.1" viewBox="45.4 35.13 652.03 88.31">
<g id="#ffffffff">
</g>
<g id="#00aca7ff">
<path fill="#00aca7" opacity="1.00" d=" M 58.31 48.32 C 65.47 40.73 75.56 35.90 86.02 35.49 C 93.92 35.25 101.82 35.15 109.71 35.30 C 113.70 35.45 118.16 37.51 119.40 41.59 C 122.01 47.03 118.09 54.63 111.95 55.12 C 103.60 55.84 95.20 55.19 86.85 55.65 C 75.90 56.51 66.70 66.05 65.73 76.91 C 65.13 81.27 63.84 86.42 59.29 88.21 C 54.42 90.59 49.33 87.25 46.06 83.75 L 45.58 83.28 C 44.41 70.49 49.06 57.28 58.31 48.32 Z"/>
<path fill="#00aca7" opacity="1.00" d=" M 143.32 38.41 C 145.94 35.38 150.25 35.03 153.99 35.17 C 161.97 35.43 169.96 35.03 177.94 35.38 C 190.60 36.15 202.42 46.32 203.74 59.17 C 201.68 56.85 199.21 54.47 195.94 54.21 C 190.59 53.32 185.20 57.49 184.64 62.87 C 183.20 59.75 181.15 56.33 177.42 55.77 C 172.01 55.10 166.52 55.74 161.08 55.38 C 156.76 55.11 152.39 55.43 148.10 54.72 C 145.42 53.75 143.39 51.63 141.25 49.83 C 141.38 46.01 140.45 41.50 143.32 38.41 Z"/>
<path fill="#00aca7" opacity="1.00" d=" M 211.79 35.83 C 217.74 33.57 224.86 38.72 224.81 45.02 C 224.99 53.01 224.81 61.01 224.87 69.00 C 219.76 69.25 214.18 68.03 209.48 70.62 C 203.12 74.34 203.67 85.50 210.59 88.31 C 215.11 90.03 220.04 89.40 224.76 89.32 C 224.93 97.24 224.96 105.18 224.78 113.10 C 224.77 117.40 222.07 121.67 217.86 122.93 C 212.01 125.04 204.66 120.29 204.82 113.91 C 204.52 91.62 204.97 69.33 204.62 47.04 C 204.33 42.27 207.01 37.22 211.79 35.83 Z"/>
<path fill="#00aca7" opacity="1.00" d=" M 350.64 41.49 C 353.05 34.43 363.85 33.02 368.18 38.96 C 370.75 42.41 370.04 46.95 370.14 50.98 C 369.95 56.65 370.50 62.44 368.94 67.97 C 365.18 83.54 351.88 96.22 336.27 99.62 C 335.80 99.72 334.85 99.92 334.38 100.02 C 330.03 100.36 325.66 100.29 321.31 100.18 C 318.86 97.12 315.61 93.73 316.42 89.46 C 316.89 85.12 320.69 82.34 324.47 80.88 C 334.50 80.84 344.95 75.04 348.31 65.23 C 351.25 57.61 348.76 49.28 350.64 41.49 Z"/>
</g>
<g id="#d8365cff">
<path fill="#d8365c" opacity="1.00" d=" M 128.41 35.52 C 133.74 34.18 140.31 38.20 140.29 44.01 C 140.59 67.35 140.13 90.70 140.25 114.04 C 141.01 120.02 134.42 124.19 129.04 123.22 C 124.94 122.87 120.92 119.34 121.37 114.97 C 121.41 91.33 121.33 67.68 121.40 44.04 C 121.00 39.78 124.45 36.33 128.41 35.52 Z"/>
<path fill="#d8365c" opacity="1.00" d=" M 184.64 62.87 C 185.20 57.49 190.59 53.32 195.94 54.21 C 199.21 54.47 201.68 56.85 203.74 59.17 C 204.00 63.41 204.09 67.73 203.38 71.94 C 201.13 80.06 195.24 87.17 187.44 90.49 C 179.15 94.38 169.77 92.99 160.92 93.09 C 157.26 93.04 153.58 93.22 149.93 92.85 C 146.04 92.52 142.97 89.51 141.25 86.20 C 141.13 84.06 141.12 81.91 141.25 79.77 C 142.70 77.19 144.85 74.77 147.79 73.91 C 152.10 72.84 156.59 73.01 161.00 72.98 C 166.85 72.88 172.79 73.39 178.57 72.33 C 182.71 71.14 183.96 66.62 184.64 62.87 Z"/>
<path fill="#d8365c" opacity="1.00" d=" M 106.57 74.56 C 112.43 71.78 120.46 76.47 120.44 83.07 C 120.51 92.17 120.61 101.29 120.39 110.39 C 119.01 107.66 117.18 104.83 114.11 103.84 C 109.69 102.37 104.94 103.13 100.37 103.00 C 100.43 96.66 100.29 90.31 100.40 83.96 C 100.43 79.98 102.70 75.93 106.57 74.56 Z"/>
</g>
<g id="#6fafbdff">
<path fill="#6fafbd" opacity="1.00" d=" M 261.54 44.92 C 261.36 38.68 268.42 33.51 274.30 35.75 C 278.30 36.90 281.48 40.74 281.23 45.01 C 281.29 67.67 281.22 90.33 281.27 112.99 C 281.45 116.63 279.82 120.61 276.37 122.22 C 270.68 125.42 262.15 121.61 261.67 114.84 C 261.03 106.33 261.51 97.77 261.40 89.23 C 261.43 82.51 261.44 75.79 261.41 69.07 C 261.35 61.02 261.32 52.97 261.54 44.92 Z"/>
</g>
<g id="#7d5f91ff">
<path fill="#7d5f91" opacity="1.00" d=" M 287.40 36.26 C 292.80 33.18 300.81 36.69 301.82 42.92 C 303.12 51.19 300.66 60.21 304.93 67.88 C 308.62 75.34 316.55 79.49 324.47 80.88 C 320.69 82.34 316.89 85.12 316.42 89.46 C 315.61 93.73 318.86 97.12 321.31 100.18 L 319.57 100.13 C 318.41 99.95 317.26 99.77 316.12 99.56 C 299.23 96.21 285.43 81.50 282.57 64.61 C 281.92 57.74 281.99 50.81 282.23 43.92 C 282.15 40.57 284.69 37.86 287.40 36.26 Z"/>
<path fill="#7d5f91" opacity="1.00" d=" M 141.25 49.83 C 143.39 51.63 145.42 53.75 148.10 54.72 C 152.39 55.43 156.76 55.11 161.08 55.38 C 160.95 61.25 161.01 67.11 161.00 72.98 C 156.59 73.01 152.10 72.84 147.79 73.91 C 144.85 74.77 142.70 77.19 141.25 79.77 C 141.26 69.79 141.25 59.81 141.25 49.83 Z"/>
<path fill="#7d5f91" opacity="1.00" d=" M 59.29 88.21 C 63.84 86.42 65.13 81.27 65.73 76.91 C 64.83 86.62 70.45 96.54 79.35 100.56 C 85.89 103.72 93.34 103.03 100.37 103.00 C 104.94 103.13 109.69 102.37 114.11 103.84 C 117.18 104.83 119.01 107.66 120.39 110.39 C 120.52 113.68 120.42 117.46 117.85 119.88 C 114.39 123.79 108.73 123.39 104.00 123.39 C 93.11 123.12 81.57 124.61 71.44 119.64 C 57.64 113.27 46.37 99.34 46.06 83.75 C 49.33 87.25 54.42 90.59 59.29 88.21 Z"/>
<path fill="#7d5f91" opacity="1.00" d=" M 141.25 86.20 C 142.97 89.51 146.04 92.52 149.93 92.85 C 153.58 93.22 157.26 93.04 160.92 93.09 C 161.01 99.76 161.10 106.43 160.93 113.09 C 160.99 118.08 156.98 122.81 151.97 123.28 C 147.02 124.03 141.24 120.38 141.31 115.03 C 141.15 105.42 141.32 95.81 141.25 86.20 Z"/>
</g>
<g id="#5f5f5fff">
<path fill="#5f5f5f" opacity="1.00" d=" M 398.87 57.25 C 406.90 57.25 414.94 57.27 422.98 57.24 C 422.98 58.83 422.99 60.41 423.01 62.00 C 416.96 62.15 410.90 62.31 404.85 62.23 C 404.68 66.78 404.75 71.33 404.73 75.88 C 410.49 75.87 416.25 75.87 422.01 75.88 C 421.99 77.46 421.98 79.05 421.97 80.64 C 416.23 80.60 410.48 80.62 404.74 80.62 C 404.74 85.91 404.78 91.20 404.69 96.49 C 411.07 96.79 417.46 96.50 423.85 96.68 C 423.88 98.33 423.92 99.99 423.96 101.65 C 415.64 101.58 407.32 101.68 399.00 101.52 C 398.71 86.77 398.96 72.01 398.87 57.25 Z"/>
<path fill="#5f5f5f" opacity="1.00" d=" M 432.05 57.09 C 434.26 57.14 436.48 57.22 438.70 57.30 C 442.02 63.10 445.13 69.02 448.54 74.77 C 451.73 68.96 455.07 63.21 458.54 57.58 C 460.71 56.93 463.07 57.34 465.32 57.24 C 460.93 64.55 456.37 71.76 452.03 79.10 C 456.78 86.53 461.31 94.09 465.71 101.73 C 463.39 101.63 461.07 101.55 458.76 101.43 C 455.32 95.70 452.27 89.73 448.70 84.08 C 448.44 84.16 447.92 84.31 447.66 84.39 C 444.22 89.84 441.59 95.78 438.12 101.21 C 435.93 101.99 433.49 101.51 431.21 101.65 C 435.76 94.18 440.14 86.61 444.79 79.19 C 440.64 71.77 435.74 64.77 432.05 57.09 Z"/>
<path fill="#5f5f5f" opacity="1.00" d=" M 475.71 57.28 C 482.79 56.74 490.44 55.58 497.04 58.94 C 504.90 63.43 504.79 76.44 497.23 81.20 C 492.56 84.40 486.68 84.29 481.26 84.18 C 481.25 89.97 481.21 95.75 481.30 101.53 C 479.36 101.56 477.42 101.56 475.49 101.54 C 475.60 86.78 475.28 72.02 475.71 57.28 M 481.41 61.53 C 481.36 67.50 481.36 73.46 481.41 79.43 C 485.18 79.33 489.27 79.79 492.70 77.84 C 497.93 75.14 498.66 66.50 493.68 63.20 C 490.08 60.77 485.51 61.44 481.41 61.53 Z"/>
<path fill="#5f5f5f" opacity="1.00" d=" M 513.70 57.49 C 515.67 57.34 517.65 57.23 519.63 57.12 C 519.59 70.28 519.66 83.43 519.59 96.59 C 525.92 96.64 532.25 96.63 538.58 96.60 C 538.63 98.26 538.68 99.93 538.73 101.59 C 530.39 101.61 522.05 101.74 513.72 101.41 C 513.76 86.77 513.79 72.13 513.70 57.49 Z"/>
<path fill="#5f5f5f" opacity="1.00" d=" M 559.22 57.18 C 565.71 55.61 573.10 57.28 577.98 61.92 C 586.09 70.82 586.38 85.59 579.15 95.10 C 571.38 104.91 553.87 104.53 547.27 93.60 C 542.16 85.61 542.19 74.88 546.71 66.64 C 549.33 61.91 553.93 58.37 559.22 57.18 M 559.42 62.30 C 548.52 67.18 547.24 82.48 553.22 91.66 C 556.77 97.17 565.02 99.09 570.55 95.46 C 580.23 88.45 580.55 72.00 571.68 64.23 C 568.23 61.59 563.50 60.65 559.42 62.30 Z"/>
<path fill="#5f5f5f" opacity="1.00" d=" M 594.60 57.59 C 602.28 56.50 611.33 54.95 618.01 59.96 C 624.73 65.47 622.19 77.17 614.40 80.36 C 621.19 85.40 620.59 94.45 623.43 101.59 C 621.43 101.60 619.44 101.62 617.46 101.64 C 615.27 96.21 615.11 90.05 612.01 85.00 C 609.07 81.84 604.37 82.62 600.50 82.47 C 600.57 88.85 600.37 95.23 600.37 101.62 C 598.45 101.62 596.53 101.62 594.61 101.62 C 594.61 86.94 594.65 72.26 594.60 57.59 M 600.49 61.47 C 600.51 67.02 600.49 72.58 600.51 78.14 C 604.49 77.98 608.82 78.43 612.40 76.30 C 616.85 73.84 617.29 66.88 613.61 63.58 C 609.86 60.65 604.91 61.32 600.49 61.47 Z"/>
<path fill="#5f5f5f" opacity="1.00" d=" M 633.38 57.38 C 641.40 57.20 649.44 56.96 657.46 57.28 C 657.55 58.81 657.64 60.34 657.74 61.87 C 651.59 62.24 645.43 62.25 639.27 62.28 C 639.23 66.77 639.26 71.26 639.23 75.75 C 645.04 75.81 650.85 75.89 656.66 75.92 C 656.63 77.49 656.61 79.05 656.60 80.62 C 650.80 80.65 645.00 80.53 639.21 80.71 C 639.28 86.02 639.24 91.33 639.24 96.64 C 645.62 96.59 651.99 96.66 658.37 96.59 C 658.42 98.26 658.49 99.93 658.58 101.61 C 650.17 101.66 641.77 101.60 633.37 101.52 C 633.39 86.80 633.38 72.09 633.38 57.38 Z"/>
<path fill="#5f5f5f" opacity="1.00" d=" M 668.72 57.54 C 676.28 56.51 684.72 55.22 691.61 59.38 C 698.91 64.49 696.84 77.00 688.72 80.18 C 695.11 85.48 695.07 94.27 697.43 101.59 C 695.48 101.60 693.55 101.61 691.63 101.62 C 689.70 96.53 689.36 90.91 686.83 86.05 C 684.41 81.76 678.80 82.59 674.65 82.49 C 674.57 88.87 674.69 95.25 674.54 101.64 C 672.68 101.63 670.82 101.63 668.97 101.64 C 668.71 86.94 669.04 72.24 668.72 57.54 M 674.72 61.55 C 674.76 67.08 674.73 72.62 674.75 78.15 C 678.87 77.98 683.37 78.42 687.02 76.09 C 691.45 73.30 691.39 65.84 687.04 63.00 C 683.32 60.79 678.84 61.33 674.72 61.55 Z"/>
</g>
<g id="#e9893dff">
<path fill="#e9893d" opacity="1.00" d=" M 209.48 70.62 C 214.18 68.03 219.76 69.25 224.87 69.00 C 237.05 69.05 249.23 68.90 261.41 69.07 C 261.44 75.79 261.43 82.51 261.40 89.23 C 249.19 89.32 236.97 89.15 224.76 89.32 C 220.04 89.40 215.11 90.03 210.59 88.31 C 203.67 85.50 203.12 74.34 209.48 70.62 Z"/>
<path fill="#e9893d" opacity="1.00" d=" M 316.12 99.56 C 317.26 99.77 318.41 99.95 319.57 100.13 C 324.45 101.34 329.53 101.35 334.38 100.02 C 334.85 99.92 335.80 99.72 336.27 99.62 C 336.41 104.39 336.46 109.17 336.12 113.93 C 336.04 119.09 331.19 123.59 326.05 123.33 C 321.36 123.28 316.68 119.59 316.33 114.77 C 315.87 109.72 315.96 104.63 316.12 99.56 Z"/>
</g>
<g id="#96ae8dff">
<path fill="#96ae8d" opacity="1.00" d=" M 319.57 100.13 L 321.31 100.18 C 325.66 100.29 330.03 100.36 334.38 100.02 C 329.53 101.35 324.45 101.34 319.57 100.13 Z"/>
</g>
</svg>