<svg xmlns="http://www.w3.org/2000/svg" version="1.1" viewBox="20.45 343.01 563.56 212.05">
<g id="#00aca7ff">
<path fill="#00aca7" opacity="1.00" d=" M 86.07 343.89 C 101.35 342.78 116.68 343.58 131.99 343.35 C 140.17 342.86 148.46 348.66 149.93 356.89 C 152.50 366.16 145.60 376.83 135.99 378.00 C 122.04 379.11 108.02 377.95 94.04 378.52 C 74.50 379.27 57.03 396.23 55.86 415.79 C 55.29 420.64 54.66 425.75 51.83 429.88 C 47.96 435.55 40.28 438.25 33.71 436.21 C 28.36 434.73 24.15 430.79 21.00 426.37 C 15.86 387.45 47.23 348.29 86.07 343.89 Z"/>
<path fill="#00aca7" opacity="1.00" d=" M 187.75 352.77 C 190.48 346.59 197.31 342.80 203.99 343.16 C 218.98 343.54 233.98 343.28 248.98 343.38 C 271.88 343.85 293.76 362.63 295.54 385.87 C 293.22 382.73 290.68 379.55 287.11 377.79 C 279.33 373.69 268.84 376.97 264.37 384.42 C 262.93 387.06 262.25 390.04 261.71 392.98 C 261.06 388.35 259.01 383.70 255.03 381.02 C 251.59 378.42 247.08 378.48 242.97 378.38 C 235.71 378.21 228.44 378.62 221.17 378.41 C 213.88 378.06 206.50 378.95 199.26 377.67 C 193.86 376.60 190.50 371.88 186.87 368.19 C 187.19 363.06 186.04 357.73 187.75 352.77 Z"/>
<path fill="#00aca7" opacity="1.00" d=" M 549.69 355.49 C 552.44 344.20 567.75 339.53 576.93 346.10 C 581.91 349.22 584.15 355.34 583.98 361.02 C 583.81 371.02 584.29 381.04 583.73 391.03 C 580.45 421.85 555.55 448.72 525.33 455.07 C 517.12 456.83 508.63 457.86 500.28 456.52 C 497.01 453.18 493.03 450.19 491.31 445.68 C 489.25 440.15 490.17 433.51 494.02 428.96 C 496.68 425.53 500.71 423.54 504.80 422.35 C 516.08 422.47 527.47 418.54 535.84 410.87 C 542.68 404.69 547.24 396.03 548.40 386.89 C 549.73 376.46 547.84 365.86 549.69 355.49 Z"/>
<path fill="#00aca7" opacity="1.00" d=" M 296.91 361.05 C 296.81 352.62 303.46 344.36 312.02 343.54 C 321.73 341.85 332.00 350.01 331.90 360.00 C 331.99 373.97 331.91 387.94 331.94 401.91 C 323.36 402.38 314.19 400.33 306.14 404.15 C 294.36 410.31 295.10 430.53 307.57 435.48 C 315.37 438.30 323.84 436.68 331.94 437.05 C 331.93 450.71 331.95 464.36 331.93 478.02 C 332.18 485.25 327.66 492.46 320.92 495.17 C 310.22 499.71 296.38 490.97 297.09 479.08 C 297.34 462.73 296.37 446.38 297.14 430.04 C 297.55 422.71 297.50 415.37 297.12 408.04 C 296.40 392.38 297.53 376.71 296.91 361.05 Z"/>
</g>
<g id="#d8365cff">
<path fill="#d8365c" opacity="1.00" d=" M 164.59 343.70 C 173.77 341.37 184.85 348.25 185.31 358.06 C 185.02 397.38 185.54 436.70 185.17 476.02 C 185.00 479.94 185.89 484.24 183.69 487.77 C 178.31 497.33 163.37 499.16 155.87 491.12 C 153.11 488.94 152.19 485.35 152.38 481.98 C 152.62 439.98 152.44 397.97 152.50 355.97 C 152.59 349.48 158.87 345.18 164.59 343.70 Z"/>
<path fill="#d8365c" opacity="1.00" d=" M 264.37 384.42 C 268.84 376.97 279.33 373.69 287.11 377.79 C 290.68 379.55 293.22 382.73 295.54 385.87 C 295.20 393.24 296.12 400.72 294.65 408.01 C 290.34 422.73 278.80 435.06 264.46 440.47 C 250.66 445.98 235.57 443.16 221.15 443.81 C 214.01 443.78 206.80 444.57 199.73 443.27 C 194.11 442.27 190.46 437.54 186.81 433.60 C 186.98 428.65 186.97 423.69 186.83 418.74 C 190.63 415.23 193.99 410.53 199.40 409.53 C 206.58 408.19 213.91 408.92 221.16 408.71 C 230.62 408.43 240.11 409.24 249.55 408.36 C 256.83 407.24 261.64 400.05 261.71 392.98 C 262.25 390.04 262.93 387.06 264.37 384.42 Z"/>
<path fill="#d8365c" opacity="1.00" d=" M 115.92 427.02 C 115.86 418.74 122.67 411.16 130.87 410.21 C 140.64 408.68 151.31 416.78 150.87 427.02 C 150.38 443.50 151.64 460.01 150.56 476.47 C 149.45 471.71 147.40 466.78 143.02 464.14 C 134.96 458.89 124.92 461.44 115.91 460.93 C 115.92 449.63 115.77 438.32 115.92 427.02 Z"/>
</g>
<g id="#6fafbdff">
<path fill="#6fafbd" opacity="1.00" d=" M 395.54 358.91 C 396.16 349.22 406.49 341.49 415.97 343.60 C 421.60 344.76 426.85 348.59 428.91 354.07 C 430.17 357.22 429.61 360.66 429.69 363.95 C 429.69 402.96 429.68 441.97 429.70 480.98 C 430.04 490.40 419.90 497.44 411.06 496.11 C 402.84 495.64 395.72 488.34 395.45 480.11 C 395.02 465.77 395.49 451.42 395.33 437.07 C 395.53 425.35 395.50 413.62 395.35 401.89 C 395.50 387.57 394.97 373.23 395.54 358.91 Z"/>
</g>
<g id="#7d5f91ff">
<path fill="#7d5f91" opacity="1.00" d=" M 431.35 357.99 C 432.16 347.56 444.35 340.34 454.02 343.96 C 459.49 345.82 464.25 350.32 465.57 356.05 C 467.69 368.55 464.30 381.56 468.15 393.84 C 471.48 403.47 478.42 411.84 487.42 416.68 C 492.76 419.76 498.78 421.29 504.80 422.35 C 500.71 423.54 496.68 425.53 494.02 428.96 C 490.17 433.51 489.25 440.15 491.31 445.68 C 493.03 450.19 497.01 453.18 500.28 456.52 C 496.89 456.10 493.50 455.72 490.15 455.12 C 460.44 449.01 436.28 422.83 431.75 392.95 C 430.74 381.33 431.41 369.64 431.35 357.99 Z"/>
<path fill="#7d5f91" opacity="1.00" d=" M 186.87 368.19 C 190.50 371.88 193.86 376.60 199.26 377.67 C 206.50 378.95 213.88 378.06 221.17 378.41 C 221.12 388.51 221.15 398.61 221.16 408.71 C 213.91 408.92 206.58 408.19 199.40 409.53 C 193.99 410.53 190.63 415.23 186.83 418.74 C 187.02 401.89 186.92 385.04 186.87 368.19 Z"/>
<path fill="#7d5f91" opacity="1.00" d=" M 51.83 429.88 C 54.66 425.75 55.29 420.64 55.86 415.79 C 54.36 430.09 61.18 444.83 72.84 453.18 C 79.07 457.61 86.50 460.32 94.14 460.79 C 101.39 461.37 108.65 460.69 115.91 460.93 C 124.92 461.44 134.96 458.89 143.02 464.14 C 147.40 466.78 149.45 471.71 150.56 476.47 C 150.57 479.29 150.53 482.17 149.89 484.93 C 147.00 491.42 140.17 496.07 133.02 496.11 C 123.01 496.16 113.00 496.11 102.99 496.13 C 95.97 496.10 88.88 496.39 81.95 495.08 C 49.49 489.18 22.53 459.51 21.00 426.37 C 24.15 430.79 28.36 434.73 33.71 436.21 C 40.28 438.25 47.96 435.55 51.83 429.88 Z"/>
<path fill="#7d5f91" opacity="1.00" d=" M 186.81 433.60 C 190.46 437.54 194.11 442.27 199.73 443.27 C 206.80 444.57 214.01 443.78 221.15 443.81 C 221.12 455.54 221.21 467.27 221.11 479.00 C 221.12 487.68 213.74 495.79 204.98 496.17 C 196.61 497.13 187.10 490.86 186.90 481.97 C 186.88 465.85 187.06 449.72 186.81 433.60 Z"/>
</g>
<g id="#e9893dff">
<path fill="#e9893d" opacity="1.00" d=" M 306.14 404.15 C 314.19 400.33 323.36 402.38 331.94 401.91 C 353.07 401.87 374.21 401.90 395.35 401.89 C 395.50 413.62 395.53 425.35 395.33 437.07 C 374.20 437.07 353.07 437.11 331.94 437.05 C 323.84 436.68 315.37 438.30 307.57 435.48 C 295.10 430.53 294.36 410.31 306.14 404.15 Z"/>
<path fill="#e9893d" opacity="1.00" d=" M 490.15 455.12 C 493.50 455.72 496.89 456.10 500.28 456.52 C 508.63 457.86 517.12 456.83 525.33 455.07 C 525.17 463.74 525.79 472.43 525.07 481.08 C 524.31 489.49 516.37 496.34 508.00 496.32 C 499.41 496.59 491.08 489.83 490.42 481.11 C 489.88 472.46 490.31 463.78 490.15 455.12 Z"/>
</g>
<g id="#434343d9">
<path fill="#434343" opacity="0.85" d=" M 200.85 517.38 C 202.68 517.39 204.51 517.42 206.35 517.46 C 209.09 522.36 212.00 527.18 214.52 532.21 C 217.46 527.35 220.19 522.36 223.08 517.47 C 224.97 517.44 226.85 517.42 228.74 517.43 C 225.21 523.65 221.00 529.47 217.55 535.75 C 221.47 541.97 225.43 548.19 228.97 554.64 C 227.04 554.60 225.11 554.53 223.18 554.43 C 220.44 549.21 217.16 544.31 214.41 539.10 C 211.65 544.27 208.62 549.29 205.93 554.50 C 204.03 554.54 202.12 554.56 200.21 554.57 C 203.83 548.24 207.74 542.08 211.49 535.84 C 208.09 529.60 203.90 523.79 200.85 517.38 Z"/>
<path fill="#434343" opacity="0.85" d=" M 237.26 517.57 C 243.13 517.02 249.53 516.00 255.03 518.73 C 261.79 522.32 261.69 533.30 255.53 537.44 C 251.61 540.22 246.59 540.18 242.00 539.94 C 242.00 544.83 242.00 549.71 242.00 554.60 C 240.37 554.55 238.74 554.52 237.12 554.48 C 237.24 542.18 236.97 529.87 237.26 517.57 M 242.03 521.05 C 242.00 526.01 241.96 530.96 242.08 535.91 C 245.26 535.96 248.74 536.46 251.61 534.75 C 256.11 532.34 256.53 524.66 251.99 522.11 C 248.98 520.33 245.34 521.05 242.03 521.05 Z"/>
<path fill="#434343" opacity="0.85" d=" M 306.49 517.57 C 312.97 515.73 320.72 517.80 324.58 523.54 C 329.39 530.83 329.29 541.20 324.37 548.41 C 318.56 556.73 304.75 557.42 298.29 549.53 C 290.24 539.74 293.27 521.14 306.49 517.57 M 307.43 521.55 C 298.48 525.22 297.22 537.82 301.57 545.46 C 304.63 551.41 313.44 552.97 318.22 548.22 C 323.72 542.62 324.15 533.22 320.44 526.54 C 318.02 522.01 312.26 519.75 307.43 521.55 Z"/>
<path fill="#434343" opacity="0.85" d=" M 336.74 517.67 C 342.97 516.92 350.06 515.77 355.72 519.19 C 362.04 523.56 360.17 534.30 353.03 536.81 C 359.18 540.53 358.28 548.67 360.75 554.59 C 359.09 554.58 357.45 554.58 355.80 554.59 C 354.00 550.33 353.92 545.49 351.75 541.39 C 349.62 537.92 345.05 538.66 341.60 538.56 C 341.51 543.91 341.68 549.27 341.49 554.62 C 339.89 554.58 338.30 554.56 336.72 554.53 C 336.72 542.25 336.67 529.96 336.74 517.67 M 341.62 521.03 C 341.56 525.66 341.52 530.28 341.64 534.91 C 344.98 534.77 348.63 535.29 351.62 533.45 C 355.33 531.27 355.77 525.29 352.44 522.58 C 349.37 520.17 345.22 520.94 341.62 521.03 Z"/>
<path fill="#434343" opacity="0.85" d=" M 398.70 517.71 C 404.93 516.88 412.02 515.79 417.70 519.18 C 423.96 523.44 422.29 534.30 415.09 536.67 C 421.04 540.65 420.36 548.59 422.74 554.60 C 421.09 554.58 419.45 554.58 417.81 554.60 C 416.00 550.33 415.92 545.47 413.74 541.37 C 411.61 537.92 407.05 538.67 403.61 538.55 C 403.50 543.90 403.68 549.26 403.49 554.61 C 401.90 554.58 400.31 554.56 398.72 554.55 C 398.69 542.26 398.73 529.98 398.70 517.71 M 403.62 521.03 C 403.54 525.65 403.56 530.27 403.61 534.89 C 406.93 534.78 410.56 535.28 413.55 533.49 C 417.32 531.34 417.79 525.32 414.45 522.59 C 411.38 520.18 407.23 520.94 403.62 521.03 Z"/>
<path fill="#434343" opacity="0.85" d=" M 173.12 517.51 C 179.83 517.34 186.55 517.43 193.27 517.46 C 193.29 518.46 193.33 520.47 193.35 521.48 C 188.24 521.76 183.12 521.53 178.00 521.62 C 178.00 525.41 178.00 529.20 178.01 533.00 C 182.84 533.00 187.67 533.00 192.50 533.00 C 192.50 534.33 192.49 535.66 192.49 537.00 C 187.66 537.00 182.83 537.00 178.01 537.00 C 178.00 541.46 178.00 545.92 178.00 550.39 C 183.33 550.38 188.65 550.43 193.97 550.34 C 194.03 551.74 194.10 553.14 194.16 554.56 C 187.14 554.54 180.13 554.68 173.11 554.48 C 173.16 542.15 173.15 529.83 173.12 517.51 Z"/>
<path fill="#434343" opacity="0.85" d=" M 269.09 517.57 C 270.72 517.49 272.36 517.43 274.00 517.38 C 274.00 528.38 273.99 539.39 274.01 550.39 C 279.29 550.39 284.58 550.41 289.87 550.37 C 289.93 551.74 289.99 553.12 290.06 554.50 C 283.07 554.59 276.08 554.69 269.10 554.45 C 269.16 542.15 269.18 529.86 269.09 517.57 Z"/>
<path fill="#434343" opacity="0.85" d=" M 369.10 517.55 C 375.81 517.28 382.52 517.47 389.24 517.44 C 389.28 518.43 389.35 520.42 389.39 521.41 C 384.27 521.84 379.13 521.50 374.01 521.61 C 374.00 525.40 374.00 529.20 374.00 532.99 C 378.83 532.99 383.66 533.00 388.50 533.00 C 388.49 534.33 388.49 535.66 388.50 537.00 C 383.67 537.00 378.83 537.00 374.01 537.00 C 374.00 541.46 374.00 545.92 374.00 550.39 C 379.32 550.38 384.63 550.44 389.95 550.33 C 390.02 551.74 390.09 553.15 390.16 554.56 C 383.14 554.52 376.12 554.72 369.10 554.45 C 369.17 542.15 369.16 529.85 369.10 517.55 Z"/>
</g>
</svg>