<svg xmlns="http://www.w3.org/2000/svg" version="1.1" viewBox="86.45 344.13 651.56 88.32">
<g id="#ffffffff">
</g>
<g id="#00aca7ff">
<path fill="#00aca7" opacity="1.00" d=" M 125.03 344.61 C 133.38 344.20 141.74 344.20 150.09 344.27 C 153.40 344.27 156.85 345.48 159.06 348.02 C 162.05 352.11 161.79 358.51 157.86 361.92 C 154.41 365.20 149.27 364.09 144.97 364.45 C 137.01 364.95 128.67 363.26 121.07 366.33 C 112.63 369.91 106.99 378.49 106.51 387.59 C 105.86 391.67 103.90 396.15 99.62 397.48 C 94.97 399.32 90.44 396.09 87.17 393.09 C 85.55 386.49 86.87 379.38 89.12 373.06 C 94.78 358.09 108.85 346.07 125.03 344.61 Z"/>
<path fill="#00aca7" opacity="1.00" d=" M 183.88 347.93 C 186.23 344.81 190.39 343.95 194.08 344.16 C 202.39 344.43 210.70 344.02 219.00 344.39 C 231.65 345.17 243.23 355.27 244.83 368.01 C 242.56 365.97 240.24 363.48 237.01 363.22 C 231.64 362.29 226.19 366.46 225.65 371.87 C 224.49 369.88 223.63 367.54 221.66 366.19 C 219.48 364.54 216.64 364.51 214.03 364.47 C 209.98 364.47 205.92 364.57 201.87 364.35 C 197.63 364.05 193.35 364.45 189.14 363.80 C 186.46 362.75 184.41 360.66 182.25 358.84 C 182.39 355.20 181.52 351.07 183.88 347.93 Z"/>
<path fill="#00aca7" opacity="1.00" d=" M 246.00 353.98 C 245.64 348.04 252.01 343.30 257.65 344.48 C 262.02 345.41 265.84 349.40 265.81 354.01 C 265.99 362.00 265.82 370.00 265.87 378.00 C 259.71 378.26 251.45 376.39 247.53 382.55 C 245.84 387.49 245.78 394.83 251.39 397.40 C 251.46 397.43 251.60 397.49 251.67 397.52 C 256.25 398.83 261.05 398.45 265.75 398.32 C 265.97 405.88 265.88 413.45 265.85 421.02 C 265.96 425.12 264.15 429.47 260.30 431.34 C 254.48 434.69 245.52 429.97 245.99 423.01 C 246.08 399.99 246.05 377.00 246.00 353.98 Z"/>
<path fill="#00aca7" opacity="1.00" d=" M 391.58 350.47 C 393.71 344.74 401.30 342.59 406.45 345.55 C 409.87 347.32 411.27 351.40 411.14 355.06 C 410.95 363.89 411.96 373.08 408.55 381.48 C 403.52 394.95 391.36 405.58 377.27 408.60 C 372.41 409.57 367.41 409.98 362.49 409.33 C 359.77 406.13 356.21 402.30 357.57 397.72 C 358.26 393.70 361.92 391.32 365.41 389.88 C 375.18 389.85 385.30 384.40 389.01 375.06 C 392.33 367.23 389.80 358.56 391.58 350.47 Z"/>
</g>
<g id="#d8365cff">
<path fill="#d8365c" opacity="1.00" d=" M 162.96 349.01 C 165.26 345.85 169.19 343.53 173.20 344.41 C 177.24 345.14 181.53 348.45 181.01 352.97 C 180.92 377.33 181.14 401.71 180.90 426.06 C 179.02 432.66 169.07 434.43 164.45 429.55 C 162.97 428.51 162.98 426.64 162.99 425.02 C 162.99 399.68 163.05 374.35 162.96 349.01 Z"/>
<path fill="#d8365c" opacity="1.00" d=" M 225.65 371.87 C 226.19 366.46 231.64 362.29 237.01 363.22 C 240.24 363.48 242.56 365.97 244.83 368.01 C 244.80 372.33 245.20 376.70 244.38 380.98 C 242.11 389.07 236.25 396.16 228.47 399.48 C 220.17 403.40 210.77 401.98 201.92 402.09 C 198.58 402.05 195.25 402.17 191.92 401.95 C 188.11 401.89 184.43 399.39 182.76 396.04 C 182.89 393.14 182.35 390.11 183.00 387.30 C 187.13 380.97 195.49 382.16 202.00 381.98 C 207.85 381.88 213.78 382.38 219.57 381.34 C 223.70 380.14 224.97 375.62 225.65 371.87 Z"/>
<path fill="#d8365c" opacity="1.00" d=" M 141.50 391.67 C 141.89 385.72 148.33 381.45 153.98 383.08 C 157.37 384.25 161.14 386.89 160.99 390.89 C 160.95 400.05 161.16 409.21 160.85 418.36 C 159.47 415.77 157.41 413.36 154.46 412.61 C 150.20 411.51 145.73 412.09 141.38 412.01 C 141.48 405.23 141.17 398.44 141.50 391.67 Z"/>
</g>
<g id="#6fafbdff">
<path fill="#6fafbd" opacity="1.00" d=" M 302.61 353.05 C 302.93 346.86 310.39 342.31 316.02 345.03 C 319.28 346.22 322.17 349.35 322.01 352.99 C 321.99 376.70 322.02 400.41 321.99 424.11 C 321.91 430.64 313.87 434.20 308.40 431.46 C 304.56 430.04 302.45 425.97 302.50 422.02 C 302.21 414.10 302.43 406.16 302.41 398.24 C 302.44 391.51 302.44 384.79 302.41 378.07 C 302.40 369.73 302.24 361.38 302.61 353.05 Z"/>
</g>
<g id="#7d5f91ff">
<path fill="#7d5f91" opacity="1.00" d=" M 323.71 350.14 C 325.19 347.38 327.72 344.98 330.88 344.38 C 336.28 343.04 342.67 347.16 342.96 352.89 C 343.92 360.88 341.82 369.55 345.95 376.92 C 349.65 384.33 357.52 388.48 365.41 389.88 C 361.92 391.32 358.26 393.70 357.57 397.72 C 356.21 402.30 359.77 406.13 362.49 409.33 C 360.68 409.11 358.89 408.87 357.10 408.57 C 338.12 404.76 322.80 386.54 323.15 367.04 C 323.20 361.42 322.57 355.68 323.71 350.14 Z"/>
<path fill="#7d5f91" opacity="1.00" d=" M 182.25 358.84 C 184.41 360.66 186.46 362.75 189.14 363.80 C 193.35 364.45 197.63 364.05 201.87 364.35 C 202.09 370.22 201.99 376.10 202.00 381.98 C 195.49 382.16 187.13 380.97 183.00 387.30 C 182.35 390.11 182.89 393.14 182.76 396.04 C 184.43 399.39 188.11 401.89 191.92 401.95 C 195.25 402.17 198.58 402.05 201.92 402.09 C 202.01 408.75 202.10 415.41 201.93 422.07 C 202.01 427.06 197.99 431.82 192.97 432.28 C 188.05 433.02 182.29 429.44 182.31 424.11 C 182.14 402.35 182.27 380.60 182.25 358.84 Z"/>
<path fill="#7d5f91" opacity="1.00" d=" M 99.62 397.48 C 103.90 396.15 105.86 391.67 106.51 387.59 C 106.64 396.31 111.39 404.94 119.22 409.00 C 125.97 412.74 133.95 412.06 141.38 412.01 C 145.73 412.09 150.20 411.51 154.46 412.61 C 157.41 413.36 159.47 415.77 160.85 418.36 C 161.05 421.91 161.85 426.19 158.87 428.87 C 155.67 432.52 150.43 432.43 145.99 432.40 C 138.29 432.22 130.55 432.77 122.89 431.79 C 108.02 429.48 95.04 418.54 89.47 404.67 C 88.22 400.94 86.69 397.10 87.17 393.09 C 90.44 396.09 94.97 399.32 99.62 397.48 Z"/>
</g>
<g id="#edededff">
<path fill="#ededed" opacity="1.00" d=" M 636.07 366.25 C 642.91 365.71 650.15 364.52 656.67 367.37 C 661.96 369.51 664.06 376.15 662.42 381.34 C 661.68 384.83 658.43 386.74 656.29 389.30 C 657.80 391.91 660.01 394.16 660.85 397.14 C 662.15 401.63 663.03 406.23 664.01 410.81 C 662.21 410.74 660.40 410.83 658.65 410.41 C 655.87 405.53 656.44 399.39 653.26 394.69 C 650.90 391.15 645.78 391.08 642.13 392.15 C 641.16 398.27 641.79 404.57 640.95 410.74 C 639.32 410.75 637.70 410.76 636.09 410.78 C 635.35 402.19 635.92 393.57 635.75 384.97 C 635.91 378.73 635.42 372.47 636.07 366.25 M 641.96 370.22 C 641.52 375.80 641.50 381.41 641.92 387.00 C 646.53 387.19 652.21 387.52 655.30 383.36 C 658.41 379.88 657.12 374.04 653.22 371.75 C 649.77 369.88 645.73 370.22 641.96 370.22 Z"/>
<path fill="#ededed" opacity="1.00" d=" M 710.16 366.34 C 717.20 365.67 724.68 364.34 731.31 367.67 C 737.05 370.11 738.35 377.76 736.05 383.02 C 734.95 385.89 732.40 387.72 730.06 389.52 C 731.79 391.31 733.72 393.09 734.43 395.58 C 735.97 400.57 737.51 405.63 738.01 410.86 C 736.32 410.58 734.24 411.23 732.81 410.25 C 730.11 405.17 730.68 398.71 726.87 394.17 C 724.28 390.85 719.64 391.75 715.99 391.81 C 715.43 398.03 716.08 404.29 715.51 410.52 C 713.71 410.63 711.91 410.75 710.13 410.87 C 709.74 403.92 710.00 396.95 709.93 390.00 C 710.05 382.11 709.41 374.20 710.16 366.34 M 716.09 371.21 C 715.47 376.43 715.69 381.71 715.90 386.94 C 720.21 387.10 724.99 387.38 728.64 384.61 C 732.95 381.00 731.73 372.50 725.94 371.14 C 722.83 370.49 718.85 369.14 716.09 371.21 Z"/>
<path fill="#ededed" opacity="1.00" d=" M 440.07 366.17 C 447.99 366.18 455.91 366.19 463.84 366.18 C 463.88 367.76 463.93 369.35 463.98 370.95 C 457.98 371.12 451.98 371.12 445.98 371.21 C 445.71 375.75 445.67 380.31 446.04 384.86 C 451.69 385.09 457.34 384.77 462.99 385.02 C 462.92 386.58 462.86 388.14 462.81 389.71 C 457.19 389.82 451.58 389.59 445.97 389.94 C 445.75 395.19 445.52 400.47 446.03 405.72 C 452.30 405.88 458.58 405.45 464.85 405.98 C 464.84 407.56 464.84 409.15 464.84 410.74 C 456.60 410.74 448.36 410.81 440.12 410.66 C 439.78 395.84 439.83 381.00 440.07 366.17 Z"/>
<path fill="#ededed" opacity="1.00" d=" M 473.18 366.15 C 475.26 366.28 477.70 365.52 479.57 366.60 C 483.60 371.72 485.45 378.25 489.71 383.23 C 492.74 378.07 495.62 372.80 498.86 367.76 C 500.28 365.14 503.69 366.50 506.07 366.25 C 502.28 373.82 497.16 380.61 493.10 388.04 C 497.26 395.69 503.06 402.50 506.03 410.74 C 503.68 410.43 500.38 411.62 499.01 409.04 C 495.62 403.82 492.81 398.23 489.71 392.83 C 485.06 397.84 483.03 404.66 479.13 410.22 C 477.10 411.32 474.69 410.64 472.55 410.32 C 476.51 402.74 481.49 395.73 485.49 388.20 C 481.94 380.56 476.48 373.93 473.18 366.15 Z"/>
<path fill="#ededed" opacity="1.00" d=" M 517.10 366.21 C 524.04 365.96 531.57 364.61 538.00 368.00 C 545.63 372.07 545.93 384.17 539.34 389.35 C 534.68 393.55 528.05 393.04 522.23 393.25 C 522.03 399.11 522.40 404.99 521.92 410.84 C 520.09 410.74 518.26 410.64 516.45 410.54 C 516.05 403.03 516.44 395.51 516.34 387.99 C 516.49 380.73 515.83 373.41 517.10 366.21 M 522.24 370.92 C 522.48 376.48 521.93 382.07 522.47 387.61 C 526.87 389.15 533.29 388.48 536.28 384.26 C 539.35 380.57 538.38 374.09 533.98 371.87 C 530.34 370.13 526.11 369.85 522.24 370.92 Z"/>
<path fill="#ededed" opacity="1.00" d=" M 555.06 366.22 C 556.94 366.20 558.83 366.18 560.72 366.16 C 560.91 379.35 560.44 392.54 560.99 405.71 C 567.29 405.91 573.61 405.44 579.90 406.05 C 579.66 407.64 580.48 410.69 577.98 410.65 C 570.36 410.94 562.74 410.65 555.12 410.63 C 554.64 395.84 554.73 381.01 555.06 366.22 Z"/>
<path fill="#ededed" opacity="1.00" d=" M 599.36 366.37 C 605.91 364.90 613.49 365.75 618.64 370.39 C 627.54 379.88 627.45 396.15 618.78 405.76 C 611.17 413.09 597.12 413.23 590.10 404.99 C 581.67 395.21 582.48 378.85 592.15 370.19 C 594.16 368.30 596.68 367.01 599.36 366.37 M 605.21 370.50 C 601.16 370.53 597.18 372.35 594.81 375.68 C 590.63 380.61 590.08 387.57 591.38 393.68 C 592.38 397.73 594.26 401.97 598.04 404.14 C 601.55 406.47 606.21 406.91 610.06 405.13 C 613.56 403.82 615.73 400.52 617.25 397.28 C 619.94 391.02 619.54 383.56 616.35 377.56 C 614.08 373.62 609.83 370.58 605.21 370.50 Z"/>
<path fill="#ededed" opacity="1.00" d=" M 674.18 370.05 C 674.18 368.63 673.93 366.09 676.09 366.27 C 683.04 366.12 690.03 365.88 696.98 366.22 C 699.37 366.15 698.42 369.26 699.00 370.78 C 692.80 371.37 686.58 370.88 680.38 371.38 C 680.07 375.82 680.10 380.28 680.24 384.73 C 686.09 384.93 691.96 384.65 697.80 385.19 C 697.70 386.65 697.61 388.11 697.53 389.58 C 691.76 389.96 685.97 389.40 680.21 389.97 C 680.08 395.17 680.01 400.38 680.43 405.58 C 686.58 405.85 692.76 405.92 698.91 405.34 C 698.94 407.00 700.49 409.36 698.78 410.58 C 690.69 410.94 682.57 410.79 674.48 410.51 C 673.90 397.04 674.52 383.54 674.18 370.05 Z"/>
</g>
<g id="#e9893dff">
<path fill="#e9893d" opacity="1.00" d=" M 247.53 382.55 C 251.45 376.39 259.71 378.26 265.87 378.00 C 278.05 378.04 290.23 377.91 302.41 378.07 C 302.44 384.79 302.44 391.51 302.41 398.24 C 290.19 398.31 277.97 398.15 265.75 398.32 C 261.05 398.45 256.25 398.83 251.67 397.52 C 251.60 397.49 251.46 397.43 251.39 397.40 C 245.78 394.83 245.84 387.49 247.53 382.55 Z"/>
<path fill="#e9893d" opacity="1.00" d=" M 357.10 408.57 C 358.89 408.87 360.68 409.11 362.49 409.33 C 367.41 409.98 372.41 409.57 377.27 408.60 C 377.42 413.41 377.46 418.24 377.11 423.06 C 376.98 428.15 372.16 432.57 367.08 432.33 C 362.38 432.31 357.70 428.60 357.33 423.79 C 356.87 418.73 356.97 413.64 357.10 408.57 Z"/>
</g>
<g id="#b7a87bff">
<path fill="#b7a87b" opacity="1.00" d=" M 251.39 397.40 C 251.46 397.43 251.60 397.49 251.67 397.52 C 251.60 397.49 251.46 397.43 251.39 397.40 Z"/>
</g>
</svg>